<?xml version="1.0" encoding="UTF-8"?><!DOCTYPE svg PUBLIC "-//W3C//DTD SVG 1.1//EN" "http://www.w3.org/Graphics/SVG/1.1/DTD/svg11.dtd"><svg xmlns="http://www.w3.org/2000/svg" xmlns:xlink="http://www.w3.org/1999/xlink"><symbol id="icon-cart" viewBox="0 0 11 10">
<path fill-rule="evenodd" clip-rule="evenodd" d="M4.5136 3.4188C4.5136 3.60735 4.35198 3.76068 4.15323 3.76068C3.9545 3.76068 3.79288 3.60735 3.79288 3.4188V1.53846C3.79288 0.690171 4.60117 0 5.59469 0H6.49558C7.43522 0 8.11721 0.647008 8.11721 1.53846V3.4188C8.11721 3.60735 7.9555 3.76068 7.75684 3.76068C7.5582 3.76068 7.39649 3.60735 7.39649 3.4188V1.53846C7.39649 1.01923 7.04279 0.683761 6.49558 0.683761H5.59469C5.07477 0.683761 4.5136 1.01051 4.5136 1.53846V3.4188ZM10.5893 2.39316C10.6934 2.39316 10.7928 2.43991 10.8621 2.52171C10.9316 2.6035 10.9645 2.71256 10.9527 2.82137L10.3045 8.78453C10.2923 9.45692 9.76827 10 9.12584 10H2.78431C2.14179 10 1.61773 9.45692 1.60566 8.78461L0.957465 2.82145C0.945578 2.71256 0.978461 2.6035 1.04792 2.52171C1.11729 2.43991 1.21665 2.39316 1.32088 2.39316H3.25233V3.4188C3.25233 3.89009 3.65647 4.2735 4.15323 4.2735C4.64998 4.2735 5.05413 3.89009 5.05413 3.4188V2.39316H6.85593V3.4188C6.85593 3.89009 7.26008 4.2735 7.75683 4.2735C8.25359 4.2735 8.65774 3.89009 8.65774 3.4188V2.39316H10.5893Z" fill="#FFC600"/>
</symbol><symbol id="icon-chart" viewBox="0 0 14 14">
<path d="M2.91663 5.36675H4.66663V11.0834H2.91663V5.36675ZM6.18329 2.91675H7.81663V11.0834H6.18329V2.91675ZM9.44996 7.58342H11.0833V11.0834H9.44996V7.58342Z" fill="#FFC600"/>
</symbol><symbol id="icon-check" viewBox="0 0 21 21">
<path fill-rule="evenodd" clip-rule="evenodd" d="M5.07692 8.75L3.38461 10.5L8.46154 15.75L16.9231 7L15.2308 5.25L8.46154 12.25L5.07692 8.75Z" fill="black"/>
</symbol><symbol id="icon-down-dir" viewBox="0 0 11 10"><path fill="#231F20" d="M5.5 10L0 0h11"/></symbol><symbol id="icon-facebook" viewBox="0 0 32 32"><path d="m31.9973 16c0-8.83733-7.1626-16-15.9986-16-8.83603 0-15.9987 7.16267-15.9987 16 0 7.984 5.85067 14.6027 13.4987 15.8027v-11.1787h-4.06137v-4.6253h4.06137v-3.524c0-4.0107 2.3893-6.22537 6.0426-6.22537 1.7507 0 3.5814.312 3.5814.312v3.93737h-2.016c-1.9867 0-2.6067 1.2333-2.6067 2.4986v3.0027h4.4373l-.7093 4.6253h-3.728v11.1787c7.648-1.2 13.4987-7.8187 13.4987-15.804z" fill="#fff" fill-opacity=".3"/></symbol><symbol id="icon-instagram" viewBox="0 0 32 32"><path d="m21 16c0 1.3261-.5268 2.5979-1.4645 3.5355-.9376.9377-2.2094 1.4645-3.5355 1.4645s-2.5979-.5268-3.5355-1.4645c-.9377-.9376-1.4645-2.2094-1.4645-3.5355 0-.285.03-.5633.0817-.8333h-1.74837v6.6616c0 .4634.375.8384.83837.8384h11.6583c.2221-.0005.4349-.089.5917-.2462.1569-.1571.245-.3701.245-.5922v-6.6616h-1.7484c.0517.27.0817.5483.0817.8333zm-5 3.3333c.4378-.0001.8714-.0864 1.2759-.2541.4044-.1676.7719-.4133 1.0815-.723.3095-.3097.555-.6773.7225-1.0819.1674-.4045.2535-.8381.2534-1.276-.0001-.4378-.0864-.8714-.2541-1.2758-.1676-.4045-.4133-.772-.723-1.0815-.3097-.3096-.6773-.5551-1.0819-.7225-.4045-.1675-.8381-.2536-1.276-.2535-.8842.0002-1.7322.3517-2.3573.9771-.6252.6255-.9762 1.4736-.976 2.3579s.3517 1.7322.9771 2.3574c.6255.6251 1.4736.9762 2.3579.9759zm4-6.8333h1.9983c.1328 0 .2601-.0526.3542-.1463.094-.0938.1471-.2209.1475-.3537v-1.9983c0-.13308-.0529-.26068-.1469-.35477-.0941-.09408-.2217-.14693-.3548-.14693h-1.9983c-.1331 0-.2607.05285-.3547.14693-.0941.09409-.147.22169-.147.35477v1.9983c.0017.275.2267.5.5017.5zm-4-12.5c-4.2435 0-8.31313 1.68571-11.31371 4.68629s-4.68629 7.07021-4.68629 11.31371 1.68571 8.3131 4.68629 11.3137 7.07021 4.6863 11.31371 4.6863c2.1012 0 4.1817-.4139 6.1229-1.2179 1.9412-.8041 3.7051-1.9827 5.1908-3.4684s2.6643-3.2496 3.4684-5.1908c.804-1.9412 1.2179-4.0217 1.2179-6.1229 0-2.1011-.4139-4.1817-1.2179-6.12294-.8041-1.9412-1.9827-3.70503-3.4684-5.19077s-3.2496-2.66429-5.1908-3.46836c-1.9412-.804078-4.0217-1.21793-6.1229-1.21793zm8.3333 22.4817c0 1.0183-.8333 1.8516-1.8516 1.8516h-12.96337c-1.01833 0-1.85166-.8333-1.85166-1.8516v-12.96337c0-1.01833.83333-1.85166 1.85166-1.85166h12.96337c1.0183 0 1.8516.83333 1.8516 1.85166z" fill="#fff" fill-opacity=".3"/></symbol><symbol id="icon-search" viewBox="0 0 16 16"><path d="m6.66671 12c1.18332-.0002 2.33253-.3964 3.26466-1.1253l2.93063 2.9306.9427-.9426-2.9307-2.9307c.7294-.93223 1.1258-2.08171 1.126-3.26534 0-2.94066-2.39263-5.33333-5.33329-5.33333-2.94067 0-5.33334 2.39267-5.33334 5.33333 0 2.94067 2.39267 5.33334 5.33334 5.33334zm0-9.33334c2.206 0 3.99999 1.794 3.99999 4s-1.79399 4.00004-3.99999 4.00004-4-1.79404-4-4.00004 1.794-4 4-4z" fill="#000"/></symbol><symbol id="icon-twitter" viewBox="0 0 32 32"><path d="m16 32c-2.1667 0-4.2396-.4219-6.21875-1.2656-1.97917-.8438-3.68229-1.9792-5.10937-3.4063-1.42709-1.4271-2.5625-3.1302-3.40626-5.1093-.843745-1.9792-1.26562-4.0521-1.26562-6.2188s.421875-4.2396 1.26562-6.21875c.84376-1.97917 1.97917-3.68229 3.40626-5.10937 1.42708-1.42709 3.1302-2.5625 5.10937-3.40626 1.97915-.843745 4.05205-1.26562 6.21875-1.26562s4.2396.421875 6.2188 1.26562c1.9791.84376 3.6822 1.97917 5.1093 3.40626 1.4271 1.42708 2.5625 3.1302 3.4063 5.10937.8437 1.97915 1.2656 4.05205 1.2656 6.21875s-.4219 4.2396-1.2656 6.2188c-.8438 1.9791-1.9792 3.6822-3.4063 5.1093s-3.1302 2.5625-5.1093 3.4063c-1.9792.8437-4.0521 1.2656-6.2188 1.2656zm9.4062-24c-.125.0625-.3124.17708-.5624.34375l-.6094.40625-.5782.3125-.6562.21875c-.7708-.85417-1.7188-1.28125-2.8438-1.28125-2.4374 0-3.6562 1.02083-3.6562 3.0625v1.8437c-3.3542-.1666-5.9271-1.3958-7.71875-3.68745-.52083.54167-.78125 1.13545-.78125 1.78125 0 1.375.51042 2.4167 1.53125 3.125-.125 0-.30208.0104-.53125.0312-.22917.0209-.41146.0209-.54688 0-.13541-.0208-.28645-.0729-.45312-.1562 0 .9583.25521 1.7552.76562 2.3906.51042.6354 1.21355 1.0469 2.10938 1.2344-.2083.25-.5.375-.875.375-.33333 0-.625-.0938-.875-.2812 0 .8124.39062 1.4427 1.1719 1.8906.7812.4479 1.6614.6823 2.6406.7031-.375.5625-.9219.9844-1.6406 1.2656-.7188.2813-1.4844.4219-2.2969.4219-.29167 0-.69271-.0729-1.20312-.2188-.51042-.1458-.77605-.2187-.79688-.2187.33333.6667 1.01562 1.2396 2.04688 1.7187 1.03122.4792 2.33852.7188 3.92192.7188 1.3958 0 2.6979-.2448 3.9062-.7344s2.2396-1.1406 3.0938-1.9531c.8541-.8125 1.5885-1.7396 2.2031-2.7813.6146-1.0416 1.0729-2.1197 1.375-3.2343s.4531-2.2136.4531-3.2969c0-.0417.125-.1302.375-.2656s.5417-.3177.875-.5469.5833-.4687.75-.7187c-1.125 0-1.875.0208-2.25.0624.7292-.4374 1.2812-1.2812 1.6562-2.5312z" fill="#fff" fill-opacity=".3"/></symbol><symbol id="icon-up-dir" viewBox="0 0 11 10"><path fill="#231F20" d="M5.5 0L0 10h11z"/></symbol><symbol id="icon-user" viewBox="0 0 13 14">
<path d="M6.49996 2.33325C7.69704 2.33325 8.66663 3.37742 8.66663 4.66659C8.66663 5.95575 7.69704 6.99992 6.49996 6.99992C5.30288 6.99992 4.33329 5.95575 4.33329 4.66659C4.33329 3.37742 5.30288 2.33325 6.49996 2.33325ZM6.49996 11.6666C6.49996 11.6666 10.8333 11.6666 10.8333 10.4999C10.8333 9.09992 8.72079 7.58325 6.49996 7.58325C4.27913 7.58325 2.16663 9.09992 2.16663 10.4999C2.16663 11.6666 6.49996 11.6666 6.49996 11.6666Z" fill="#FFC600"/>
</symbol></svg>